<?xml version="1.0" standalone="no"?>
<!DOCTYPE svg PUBLIC "-//W3C//DTD SVG 20010904//EN"
 "http://www.w3.org/TR/2001/REC-SVG-20010904/DTD/svg10.dtd">
<svg version="1.0" xmlns="http://www.w3.org/2000/svg"
 width="400.000000pt" height="400.000000pt" viewBox="0 0 400.000000 400.000000"
 preserveAspectRatio="xMidYMid meet">
<metadata>
Created by potrace 1.11, written by Peter Selinger 2001-2013
</metadata>
<g transform="translate(0.000000,400.000000) scale(0.100000,-0.100000)"
fill="#000000" stroke="none">
<path d="M2169 3156 c-56 -20 -96 -53 -126 -103 -51 -87 -53 -114 -53 -703 0
-588 2 -616 53 -702 60 -104 143 -132 352 -121 l125 6 0 154 0 153 -115 0
-115 0 0 505 0 505 510 0 510 0 0 -505 0 -505 -190 0 -190 0 0 -161 0 -162
213 6 c180 4 222 8 280 26 118 38 167 114 187 289 13 115 13 924 0 1030 -21
163 -72 242 -182 279 -48 16 -107 18 -638 20 -463 2 -593 0 -621 -11z"/>
<path d="M552 2950 c-62 -9 -164 -49 -157 -60 3 -5 0 -12 -6 -16 -8 -4 -9 -3
-5 4 4 7 3 12 -3 12 -14 0 -32 -35 -23 -45 4 -5 2 -5 -5 -1 -17 10 -27 -12
-12 -30 10 -12 9 -13 -3 -9 -10 4 -18 -6 -27 -34 -27 -91 -32 -219 -29 -712 3
-491 4 -505 24 -549 12 -25 29 -54 38 -65 l16 -20 16 20 c12 14 15 15 11 4 -3
-9 0 -23 6 -30 10 -11 9 -11 -5 0 -13 10 -18 10 -18 2 0 -16 105 -64 145 -67
16 -1 37 -5 46 -8 21 -9 1083 -2 1133 7 22 4 46 13 53 19 7 6 13 8 13 4 0 -4
14 0 30 9 31 16 41 29 15 19 -8 -4 -15 -2 -15 4 0 5 12 9 28 8 20 -1 27 4 26
16 -1 10 3 15 8 12 6 -4 8 3 4 17 -3 13 -3 18 0 12 8 -19 27 -16 20 3 -3 8 -2
13 3 10 5 -3 12 1 15 10 4 9 2 13 -5 8 -7 -4 -3 6 9 22 17 25 21 50 25 172 l6
143 -155 -3 -154 -3 2 -83 c2 -45 -1 -82 -5 -82 -4 0 -3 -9 3 -21 7 -11 9 -23
6 -27 -3 -3 -6 -1 -6 4 0 5 -199 7 -497 4 -274 -3 -506 -2 -515 3 -16 7 -18
45 -20 517 -2 335 0 510 7 510 463 4 1031 -2 1039 -11 8 -9 8 -10 0 -6 -19 11
-21 -8 -20 -178 l1 -160 153 -3 153 -3 -4 203 c-6 239 -5 232 -19 266 -12 29
-15 37 -17 51 -1 10 -78 91 -87 91 -3 0 -4 -6 -1 -14 5 -12 0 -13 -26 -4 -38
13 -51 23 -20 15 13 -3 26 0 30 5 3 6 1 8 -5 4 -5 -3 -12 -2 -14 4 -1 5 -19
11 -38 12 -19 2 -38 8 -42 13 -9 12 -1048 17 -1126 5z m-25 -26 c-3 -3 -12 -4
-19 -1 -8 3 -5 6 6 6 11 1 17 -2 13 -5z m-61 -30 c-11 -8 -25 -14 -30 -13 -6
0 -5 3 3 6 11 5 11 7 0 15 -10 6 -7 7 9 3 14 -4 22 -2 22 6 0 7 3 9 7 5 5 -4
-1 -14 -11 -22z m-71 -54 c3 -6 -1 -7 -9 -4 -18 7 -21 14 -7 14 6 0 13 -4 16
-10z m1469 -16 c5 -14 4 -15 -9 -4 -17 14 -19 20 -6 20 5 0 12 -7 15 -16z m-6
-130 c-3 -14 -5 -12 -10 9 -3 19 -2 25 4 19 6 -6 8 -18 6 -28z m-1225 -24 c-6
-6 -33 30 -33 43 0 5 9 -1 19 -14 11 -13 17 -26 14 -29z m997 10 c0 -5 -7 -7
-15 -4 -8 4 -15 8 -15 10 0 2 7 4 15 4 8 0 15 -4 15 -10z m-3 -192 c-3 -8 -6
-5 -6 6 -1 11 2 17 5 13 3 -3 4 -12 1 -19z m-1153 -1066 c2 -4 -3 -8 -12 -8
-9 -1 -26 -4 -37 -8 -13 -5 -11 -2 5 8 29 18 37 19 44 8z"/>
<path d="M1524 2220 c-115 -17 -182 -52 -219 -114 -36 -62 -55 -156 -55 -283
l0 -113 150 0 150 0 0 100 0 100 190 0 190 0 0 160 0 160 -177 -1 c-98 -1
-201 -5 -229 -9z"/>
<path d="M2350 2077 l0 -155 110 -7 110 -7 0 -504 0 -504 -510 0 -510 0 0 180
0 180 -151 0 -151 0 4 -222 c5 -240 13 -287 64 -355 33 -44 114 -80 209 -93
123 -17 1117 -9 1168 10 62 22 123 83 149 148 l23 57 0 590 c0 447 -3 600 -13
632 -22 75 -71 135 -136 168 -57 29 -65 30 -213 33 l-153 4 0 -155z"/>
</g>
</svg>
